<mxfile host="app.diagrams.net" agent="Mozilla/5.0 (Windows NT 10.0; Win64; x64) AppleWebKit/537.36 (KHTML, like Gecko) Chrome/132.0.0.0 Safari/537.36" version="26.0.11">
  <diagram name="Sayfa -1" id="UQco0uMZRhP7DndrLmux">
    <mxGraphModel dx="1434" dy="780" grid="1" gridSize="10" guides="1" tooltips="1" connect="1" arrows="1" fold="1" page="1" pageScale="1" pageWidth="827" pageHeight="1169" math="0" shadow="0">
      <root>
        <mxCell id="0" />
        <mxCell id="1" parent="0" />
        <mxCell id="6ajkESovImj5OFVm1nsw-7" style="edgeStyle=orthogonalEdgeStyle;rounded=0;orthogonalLoop=1;jettySize=auto;html=1;entryX=0.5;entryY=0;entryDx=0;entryDy=0;" edge="1" parent="1" source="6ajkESovImj5OFVm1nsw-5" target="6ajkESovImj5OFVm1nsw-6">
          <mxGeometry relative="1" as="geometry" />
        </mxCell>
        <mxCell id="6ajkESovImj5OFVm1nsw-5" value="Start" style="rounded=1;whiteSpace=wrap;html=1;" vertex="1" parent="1">
          <mxGeometry x="45" y="10" width="120" height="60" as="geometry" />
        </mxCell>
        <mxCell id="6ajkESovImj5OFVm1nsw-9" style="edgeStyle=orthogonalEdgeStyle;rounded=0;orthogonalLoop=1;jettySize=auto;html=1;entryX=0.5;entryY=0;entryDx=0;entryDy=0;" edge="1" parent="1" source="6ajkESovImj5OFVm1nsw-6" target="6ajkESovImj5OFVm1nsw-8">
          <mxGeometry relative="1" as="geometry" />
        </mxCell>
        <mxCell id="6ajkESovImj5OFVm1nsw-6" value="mode AUTO" style="rounded=0;whiteSpace=wrap;html=1;" vertex="1" parent="1">
          <mxGeometry x="45" y="90" width="120" height="60" as="geometry" />
        </mxCell>
        <mxCell id="6ajkESovImj5OFVm1nsw-50" style="edgeStyle=orthogonalEdgeStyle;rounded=0;orthogonalLoop=1;jettySize=auto;html=1;entryX=0.5;entryY=0;entryDx=0;entryDy=0;" edge="1" parent="1" source="6ajkESovImj5OFVm1nsw-8" target="6ajkESovImj5OFVm1nsw-16">
          <mxGeometry relative="1" as="geometry" />
        </mxCell>
        <mxCell id="6ajkESovImj5OFVm1nsw-8" value="arm throttle" style="rounded=0;whiteSpace=wrap;html=1;" vertex="1" parent="1">
          <mxGeometry x="45" y="170" width="120" height="60" as="geometry" />
        </mxCell>
        <mxCell id="6ajkESovImj5OFVm1nsw-19" style="edgeStyle=orthogonalEdgeStyle;rounded=0;orthogonalLoop=1;jettySize=auto;html=1;exitX=0.5;exitY=1;exitDx=0;exitDy=0;entryX=0.5;entryY=0;entryDx=0;entryDy=0;" edge="1" parent="1" source="6ajkESovImj5OFVm1nsw-16" target="6ajkESovImj5OFVm1nsw-18">
          <mxGeometry relative="1" as="geometry" />
        </mxCell>
        <mxCell id="6ajkESovImj5OFVm1nsw-16" value="Set Waypoints" style="rounded=0;whiteSpace=wrap;html=1;" vertex="1" parent="1">
          <mxGeometry x="45" y="250" width="120" height="60" as="geometry" />
        </mxCell>
        <mxCell id="6ajkESovImj5OFVm1nsw-21" value="No" style="edgeStyle=orthogonalEdgeStyle;rounded=0;orthogonalLoop=1;jettySize=auto;html=1;exitX=0;exitY=0.5;exitDx=0;exitDy=0;entryX=0;entryY=0.5;entryDx=0;entryDy=0;" edge="1" parent="1" source="6ajkESovImj5OFVm1nsw-18" target="6ajkESovImj5OFVm1nsw-22">
          <mxGeometry relative="1" as="geometry">
            <mxPoint x="10" y="800" as="targetPoint" />
          </mxGeometry>
        </mxCell>
        <mxCell id="6ajkESovImj5OFVm1nsw-51" value="Yes" style="edgeStyle=orthogonalEdgeStyle;rounded=0;orthogonalLoop=1;jettySize=auto;html=1;exitX=1;exitY=0.5;exitDx=0;exitDy=0;" edge="1" parent="1" source="6ajkESovImj5OFVm1nsw-18" target="6ajkESovImj5OFVm1nsw-33">
          <mxGeometry x="-0.0833" relative="1" as="geometry">
            <mxPoint as="offset" />
          </mxGeometry>
        </mxCell>
        <mxCell id="6ajkESovImj5OFVm1nsw-18" value="Arrived last waypoinf" style="rhombus;whiteSpace=wrap;html=1;" vertex="1" parent="1">
          <mxGeometry x="30" y="330" width="150" height="150" as="geometry" />
        </mxCell>
        <mxCell id="6ajkESovImj5OFVm1nsw-23" style="edgeStyle=orthogonalEdgeStyle;rounded=0;orthogonalLoop=1;jettySize=auto;html=1;exitX=0.5;exitY=0;exitDx=0;exitDy=0;entryX=0.5;entryY=1;entryDx=0;entryDy=0;" edge="1" parent="1" source="6ajkESovImj5OFVm1nsw-22" target="6ajkESovImj5OFVm1nsw-18">
          <mxGeometry relative="1" as="geometry" />
        </mxCell>
        <mxCell id="6ajkESovImj5OFVm1nsw-22" value="Wait 1 second" style="rounded=0;whiteSpace=wrap;html=1;" vertex="1" parent="1">
          <mxGeometry x="45" y="570" width="120" height="60" as="geometry" />
        </mxCell>
        <mxCell id="6ajkESovImj5OFVm1nsw-26" value="No" style="edgeStyle=orthogonalEdgeStyle;rounded=0;orthogonalLoop=1;jettySize=auto;html=1;exitX=0.5;exitY=1;exitDx=0;exitDy=0;" edge="1" parent="1" source="6ajkESovImj5OFVm1nsw-25" target="6ajkESovImj5OFVm1nsw-27">
          <mxGeometry relative="1" as="geometry">
            <mxPoint x="325" y="160" as="targetPoint" />
          </mxGeometry>
        </mxCell>
        <mxCell id="6ajkESovImj5OFVm1nsw-29" value="Yes" style="edgeStyle=orthogonalEdgeStyle;rounded=0;orthogonalLoop=1;jettySize=auto;html=1;exitX=0.5;exitY=0;exitDx=0;exitDy=0;entryX=0.5;entryY=1;entryDx=0;entryDy=0;" edge="1" parent="1" source="6ajkESovImj5OFVm1nsw-25" target="6ajkESovImj5OFVm1nsw-30">
          <mxGeometry relative="1" as="geometry">
            <mxPoint x="325" y="-140" as="targetPoint" />
          </mxGeometry>
        </mxCell>
        <mxCell id="6ajkESovImj5OFVm1nsw-25" value="arrived area1" style="rhombus;whiteSpace=wrap;html=1;" vertex="1" parent="1">
          <mxGeometry x="320" y="95" width="110" height="110" as="geometry" />
        </mxCell>
        <mxCell id="6ajkESovImj5OFVm1nsw-28" style="edgeStyle=orthogonalEdgeStyle;rounded=0;orthogonalLoop=1;jettySize=auto;html=1;exitX=1;exitY=0.5;exitDx=0;exitDy=0;entryX=1;entryY=0.5;entryDx=0;entryDy=0;" edge="1" parent="1" source="6ajkESovImj5OFVm1nsw-27" target="6ajkESovImj5OFVm1nsw-25">
          <mxGeometry relative="1" as="geometry" />
        </mxCell>
        <mxCell id="6ajkESovImj5OFVm1nsw-27" value="Wait 1 second" style="rounded=0;whiteSpace=wrap;html=1;" vertex="1" parent="1">
          <mxGeometry x="315" y="240" width="120" height="60" as="geometry" />
        </mxCell>
        <mxCell id="6ajkESovImj5OFVm1nsw-52" style="edgeStyle=orthogonalEdgeStyle;rounded=0;orthogonalLoop=1;jettySize=auto;html=1;exitX=1;exitY=0.5;exitDx=0;exitDy=0;entryX=0.5;entryY=0;entryDx=0;entryDy=0;" edge="1" parent="1" source="6ajkESovImj5OFVm1nsw-30" target="6ajkESovImj5OFVm1nsw-37">
          <mxGeometry relative="1" as="geometry" />
        </mxCell>
        <mxCell id="6ajkESovImj5OFVm1nsw-30" value="Release first cube" style="rounded=0;whiteSpace=wrap;html=1;" vertex="1" parent="1">
          <mxGeometry x="315" y="10" width="120" height="60" as="geometry" />
        </mxCell>
        <mxCell id="6ajkESovImj5OFVm1nsw-63" style="edgeStyle=orthogonalEdgeStyle;rounded=0;orthogonalLoop=1;jettySize=auto;html=1;exitX=1;exitY=0.5;exitDx=0;exitDy=0;entryX=0;entryY=0.5;entryDx=0;entryDy=0;" edge="1" parent="1" source="6ajkESovImj5OFVm1nsw-33" target="6ajkESovImj5OFVm1nsw-25">
          <mxGeometry relative="1" as="geometry" />
        </mxCell>
        <mxCell id="6ajkESovImj5OFVm1nsw-33" value="Set waypoints" style="rounded=0;whiteSpace=wrap;html=1;" vertex="1" parent="1">
          <mxGeometry x="160" y="450" width="120" height="60" as="geometry" />
        </mxCell>
        <mxCell id="6ajkESovImj5OFVm1nsw-57" value="No" style="edgeStyle=orthogonalEdgeStyle;rounded=0;orthogonalLoop=1;jettySize=auto;html=1;exitX=1;exitY=0.5;exitDx=0;exitDy=0;entryX=0.5;entryY=0;entryDx=0;entryDy=0;" edge="1" parent="1" source="6ajkESovImj5OFVm1nsw-37" target="6ajkESovImj5OFVm1nsw-39">
          <mxGeometry relative="1" as="geometry">
            <mxPoint x="710" y="220" as="targetPoint" />
          </mxGeometry>
        </mxCell>
        <mxCell id="6ajkESovImj5OFVm1nsw-60" value="Yes" style="edgeStyle=orthogonalEdgeStyle;rounded=0;orthogonalLoop=1;jettySize=auto;html=1;exitX=0;exitY=0.5;exitDx=0;exitDy=0;entryX=0.5;entryY=0;entryDx=0;entryDy=0;" edge="1" parent="1" source="6ajkESovImj5OFVm1nsw-37" target="6ajkESovImj5OFVm1nsw-58">
          <mxGeometry relative="1" as="geometry" />
        </mxCell>
        <mxCell id="6ajkESovImj5OFVm1nsw-37" value="arrive area2" style="rhombus;whiteSpace=wrap;html=1;" vertex="1" parent="1">
          <mxGeometry x="570" y="95" width="120" height="120" as="geometry" />
        </mxCell>
        <mxCell id="6ajkESovImj5OFVm1nsw-67" style="edgeStyle=orthogonalEdgeStyle;rounded=0;orthogonalLoop=1;jettySize=auto;html=1;exitX=0;exitY=0.5;exitDx=0;exitDy=0;entryX=0.5;entryY=1;entryDx=0;entryDy=0;" edge="1" parent="1" source="6ajkESovImj5OFVm1nsw-39" target="6ajkESovImj5OFVm1nsw-37">
          <mxGeometry relative="1" as="geometry" />
        </mxCell>
        <mxCell id="6ajkESovImj5OFVm1nsw-39" value="Wait 1 second" style="rounded=0;whiteSpace=wrap;html=1;" vertex="1" parent="1">
          <mxGeometry x="690" y="240" width="120" height="60" as="geometry" />
        </mxCell>
        <mxCell id="6ajkESovImj5OFVm1nsw-44" value="No" style="edgeStyle=orthogonalEdgeStyle;rounded=0;orthogonalLoop=1;jettySize=auto;html=1;exitX=0;exitY=0.5;exitDx=0;exitDy=0;entryX=0.5;entryY=0;entryDx=0;entryDy=0;" edge="1" parent="1" source="6ajkESovImj5OFVm1nsw-42" target="6ajkESovImj5OFVm1nsw-45">
          <mxGeometry relative="1" as="geometry">
            <mxPoint x="400" y="530" as="targetPoint" />
          </mxGeometry>
        </mxCell>
        <mxCell id="6ajkESovImj5OFVm1nsw-62" value="Yes" style="edgeStyle=orthogonalEdgeStyle;rounded=0;orthogonalLoop=1;jettySize=auto;html=1;exitX=1;exitY=0.5;exitDx=0;exitDy=0;entryX=0.5;entryY=0;entryDx=0;entryDy=0;" edge="1" parent="1" source="6ajkESovImj5OFVm1nsw-42" target="6ajkESovImj5OFVm1nsw-47">
          <mxGeometry relative="1" as="geometry" />
        </mxCell>
        <mxCell id="6ajkESovImj5OFVm1nsw-42" value="arrived last waypoint" style="rhombus;whiteSpace=wrap;html=1;" vertex="1" parent="1">
          <mxGeometry x="474" y="330" width="150" height="150" as="geometry" />
        </mxCell>
        <mxCell id="6ajkESovImj5OFVm1nsw-46" style="edgeStyle=orthogonalEdgeStyle;rounded=0;orthogonalLoop=1;jettySize=auto;html=1;exitX=1;exitY=0.5;exitDx=0;exitDy=0;entryX=0.5;entryY=1;entryDx=0;entryDy=0;" edge="1" parent="1" source="6ajkESovImj5OFVm1nsw-45" target="6ajkESovImj5OFVm1nsw-42">
          <mxGeometry relative="1" as="geometry" />
        </mxCell>
        <mxCell id="6ajkESovImj5OFVm1nsw-45" value="Wait 1 second" style="rounded=0;whiteSpace=wrap;html=1;" vertex="1" parent="1">
          <mxGeometry x="340" y="500" width="120" height="60" as="geometry" />
        </mxCell>
        <mxCell id="6ajkESovImj5OFVm1nsw-49" style="edgeStyle=orthogonalEdgeStyle;rounded=0;orthogonalLoop=1;jettySize=auto;html=1;entryX=0.5;entryY=0;entryDx=0;entryDy=0;" edge="1" parent="1" source="6ajkESovImj5OFVm1nsw-47" target="6ajkESovImj5OFVm1nsw-48">
          <mxGeometry relative="1" as="geometry" />
        </mxCell>
        <mxCell id="6ajkESovImj5OFVm1nsw-47" value="mode RTL" style="rounded=0;whiteSpace=wrap;html=1;" vertex="1" parent="1">
          <mxGeometry x="624" y="500" width="120" height="60" as="geometry" />
        </mxCell>
        <mxCell id="6ajkESovImj5OFVm1nsw-48" value="End" style="rounded=1;whiteSpace=wrap;html=1;" vertex="1" parent="1">
          <mxGeometry x="624" y="585" width="120" height="60" as="geometry" />
        </mxCell>
        <mxCell id="6ajkESovImj5OFVm1nsw-64" style="edgeStyle=orthogonalEdgeStyle;rounded=0;orthogonalLoop=1;jettySize=auto;html=1;exitX=0.5;exitY=1;exitDx=0;exitDy=0;entryX=0.5;entryY=0;entryDx=0;entryDy=0;" edge="1" parent="1" source="6ajkESovImj5OFVm1nsw-58" target="6ajkESovImj5OFVm1nsw-42">
          <mxGeometry relative="1" as="geometry" />
        </mxCell>
        <mxCell id="6ajkESovImj5OFVm1nsw-58" value="Release second cube" style="rounded=0;whiteSpace=wrap;html=1;" vertex="1" parent="1">
          <mxGeometry x="489" y="240" width="120" height="60" as="geometry" />
        </mxCell>
      </root>
    </mxGraphModel>
  </diagram>
</mxfile>
